<svg xmlns="http://www.w3.org/2000/svg" viewBox="0 0 70.1 31.4"><defs><style>.cls-1{fill:#2b2b2b;fill-rule:evenodd;}</style></defs><title>Butter6</title><g id="Capa_2" data-name="Capa 2"><g id="Capa_1-2" data-name="Capa 1"><path class="cls-1" d="M70,6.87c-.34-.34-1.8.09-2.17.18-2.2.56-4.16,1.14-6,1.75-2.63.84-5.48,1.54-7.87,2.42-.61.22-1.18.46-1.77.71s-1.25.44-1.87.67c-1.21.46-2.42.93-3.65,1.36-.61.22-1.12.49-1.69.74s-1.18.49-1.8.71c-1.22.46-2.38,1-3.57,1.38.19-.19.42-.37.42-.67.77-.51,1.53-1,2.4-1.52s1.73-1,2.52-1.47,1.71-.94,2.59-1.42c.4-.21.87-.46,1.37-.67a2.75,2.75,0,0,1,1.72-.35c-.22.07-.67.16-.67.37,0,.43,1.2.23,1.27-.11s-.39-.51-.94-.49a5.68,5.68,0,0,0-1.62.51,87.34,87.34,0,0,0-8.8,5,3.05,3.05,0,0,0-1-.24c1.54-1.4,3.41-3.1,5.11-4.58a7.49,7.49,0,0,0,.79-.8c.35-.41.8-1.22,0-1.47-.49-.14-1.11,0-1.16.27s.06.27.26.32c.5.11.75-.17,1.07-.15.07.35-.19.68-.44,1a7.4,7.4,0,0,1-.76.83c-.6.52-1.13,1-1.76,1.55-.94.78-1.68,1.58-2.59,2.34a11.18,11.18,0,0,1-.9.78c-.13.1-.32.18-.46.28l-.43.32c-.59.44-1.16.83-1.77,1.22a3.57,3.57,0,0,1-1,.53c-.09-1.08-.38-2.1-.53-3.09-.06-.31-.13-.62-.17-.94s.1-.73,0-1.1a2.67,2.67,0,0,0-.47-.85c-.55-.72-.87-1.6-1.37-2.4-.64-1.07-1.55-2.09-2.29-3.1A14.9,14.9,0,0,0,28.8,5.21a15.78,15.78,0,0,0-1.56-1.33c-.54-.42-1.1-.85-1.62-1.29A12.39,12.39,0,0,0,22.26.72,8.94,8.94,0,0,0,20.49.15a9,9,0,0,0-2.36-.1,10.15,10.15,0,0,0-1.62.51A4.34,4.34,0,0,0,14.38,3c-.46,1-.59,2.06-1.13,3a12.45,12.45,0,0,1-1,1.27c-.34.43-.63.87-.94,1.29s-.65.85-.93,1.29a4.6,4.6,0,0,0-.66,1.45A2,2,0,0,0,11,13.22c.2.08.44.14.64.21l.6.25a3.82,3.82,0,0,1,1.09.53c-1.13,0-2.25.09-3.3.07a15.67,15.67,0,0,0-3,.28,14.31,14.31,0,0,0-2.85.89,9.53,9.53,0,0,0-1.43.69A6.42,6.42,0,0,0,1.66,17.2c-.18.19-.38.35-.54.55a7.86,7.86,0,0,0-.66,1.13A2.89,2.89,0,0,0,0,20.67,6.54,6.54,0,0,0,.52,22a7.45,7.45,0,0,0,2.89,3.19,22.42,22.42,0,0,0,2.86,1.62,9.38,9.38,0,0,0,4.25.89c.32,0,.86,0,1.14,0a5.74,5.74,0,0,0,.66-.18c.81-.17,1.65-.26,2.46-.38s1.65-.25,2.46-.41,1.44-.37,2.16-.57c1.4-.4,2.77-.85,4.15-1.22A16.58,16.58,0,0,0,28.1,23a3.22,3.22,0,0,1,.76-.43c0,.14.18.13.18.25a11.49,11.49,0,0,0-1.17.95,13.58,13.58,0,0,1-1.23.92c-.39.31-.8.63-1.17,1s-.79.64-1.15,1a32.67,32.67,0,0,0-3,3.13c-.22.25-.82.89-.68,1.2a1.79,1.79,0,0,0,.94.39A6.61,6.61,0,0,0,23.91,31c.61-.12,1.21-.29,1.8-.39a29,29,0,0,0,3.62-.75,23.72,23.72,0,0,0,3-1.12,40.17,40.17,0,0,0,5.16-2.65,21.26,21.26,0,0,0,2.24-1.5c1.29-1.09,3.14-2.44,3.2-4,.46-.14,1.33-.1,1.8-.23s1.28-.45,2-.69A13.55,13.55,0,0,0,48.6,19l.76-.46.83-.43c1.73-.83,3.43-1.66,5-2.58.53-.3,1.07-.6,1.61-.88s1.15-.55,1.69-.85c1.24-.69,2.66-1.3,3.94-1.93s2.57-1.27,3.9-1.89a12.35,12.35,0,0,0,2-1.22A17.42,17.42,0,0,0,70,7.4C70,7.16,70.2,7,70,6.87Zm-30.9,10h0c-.34.2-.8.33-1.14.53h0C38.34,17.22,38.82,17.09,39.14,16.89Zm-1.08-.59-.19.16h0Z"/></g></g></svg>