<svg xmlns="http://www.w3.org/2000/svg" viewBox="0 0 88.05 34.09"><defs><style>.cls-1{fill:#2b2b2b;}</style></defs><title>Butter4</title><g id="Capa_2" data-name="Capa 2"><g id="Capa_1-2" data-name="Capa 1"><path class="cls-1" d="M15,14.54a70.18,70.18,0,0,0,12.79,1c3.7,0,9.79,0,12.63,1.64-.21.74.5,1.61,2,2.21a7.73,7.73,0,0,0,4.62.4s0,0,.05,0a1,1,0,0,0,.36.27v-.05c2.94,1.85,6.09,3.54,9.13,5.34a20.12,20.12,0,0,1,4.13,3.22c1.36,1.45.91,3.36,2.75,4.64,4.39,3.09,3-3.29,2.45-4.16,5.56,1.27,18.76,3.18,20-2,.44-1.84-.8-3.23-2.83-4.37,3.56-.93,6-2.45,4.67-4.88-2.26-4.15-10.93-4.18-18-4.59C69.29,12,68.16,10.91,65.49,10a23.09,23.09,0,0,0-2.29-.63,8,8,0,0,0-3.07-2,5.25,5.25,0,0,0-1.86-5c-4.35-3.81-8.39-.89-10.08,1.86A11.12,11.12,0,0,0,43.37.89C35.13-2.19,34.53,3.47,36,6.36c1.94,4,5.15,6.59,9.62,9.89a7.41,7.41,0,0,0-3.69-.12c-2.22-2.68-8.4-2-12.92-2.82-7.86-1.45-14.85-6-13.13-10.56H16c.6-.06,1-.35.91-.67s-.65-.54-1.24-.49-1,.35-.91.67.38.41.77.47c-1.46,3.83,3.1,7.47,9,9.56a26.37,26.37,0,0,0,7.6,1.48c3.69.2,7.85.54,9.49,2.45a2.76,2.76,0,0,0-.69.31,1.19,1.19,0,0,0-.39.43c-4.24-2.4-14.77-1.27-19.85-1.76-8.95-.86-24.38-5-19.43-10.94A2,2,0,0,0,2,4.35c.6,0,1-.36.92-.68s-.65-.53-1.25-.48-1,.35-.91.67A.55.55,0,0,0,1,4.14C-3.24,9.12,7.05,13,15,14.54Z"/></g></g></svg>