<svg xmlns="http://www.w3.org/2000/svg" viewBox="0 0 139.78 134.82"><defs><style>.cls-1{isolation:isolate;}.cls-2{fill:#000d20;}.cls-3{fill:none;stroke:#000d20;stroke-linecap:round;stroke-linejoin:round;}.cls-4{fill:#ffb726;mix-blend-mode:multiply;}</style></defs><title>Butter1</title><g class="cls-1"><g id="Capa_2" data-name="Capa 2"><g id="Capa_1-2" data-name="Capa 1"><path class="cls-2" d="M59.44,82.84c-6.7,10.91-13.58,18.87-15.36,17.78S46.3,89.8,53,78.88,66.59,60,68.37,61.1,66.15,71.92,59.44,82.84Z"/><path class="cls-2" d="M71.58,63.08a3.78,3.78,0,1,1-1.24-5.2A3.78,3.78,0,0,1,71.58,63.08Z"/><path class="cls-3" d="M68.41,34.28s8,6,.1,24.65"/><path class="cls-2" d="M69.92,35.2a1.77,1.77,0,1,1-.58-2.43A1.78,1.78,0,0,1,69.92,35.2Z"/><path class="cls-3" d="M92.43,49s-8.94-4.46-22,11.05"/><path class="cls-2" d="M90.92,48.11a1.77,1.77,0,1,0,2.44-.58A1.77,1.77,0,0,0,90.92,48.11Z"/><path class="cls-4" d="M65.23,66.62c-.72-8.55-7.74-52.39-22.81-62.41C25.83-6.82,27,5.9,22.62,18.67s-14,19.16,6.14,31.71A299.6,299.6,0,0,1,60.83,73.24Z"/><path class="cls-4" d="M63.33,69.49c-3.27-3-19.18-17.13-32.16-17.59C16.64,51.39-4,58.27.68,84.07s13.65,29.7,31,18.54L48.53,91.73Z"/><path class="cls-4" d="M51.5,15.55c-2.62-5-5.64-9-9.08-11.34C25.83-6.82,27,5.9,22.62,18.67,19,29.22,11.84,35.42,20.82,44.35,27.57,31,36.8,18.29,51.5,15.55Z"/><path class="cls-4" d="M13.74,55.35l0-.21C4.65,59.33-2.24,68,.68,84.07c4.43,24.34,12.65,29.18,28.11,20.29C19.37,89.83,12.18,72.39,13.74,55.35Z"/><path class="cls-4" d="M65.23,66.62c8.16-2.64,51.31-13.12,66.39-3.09,16.58,11,4.4,14.89-5.68,23.85S113.66,107.67,94.31,94A299.13,299.13,0,0,0,60.83,73.24Z"/><path class="cls-4" d="M63.33,69.49c4,1.84,23.21,11.06,28.65,22.85,6.08,13.21,7.73,34.91-17.88,40.56S41.43,131.79,45,111.51c2.54-14.35,3.28-18.55,3.5-19.78Z"/><path class="cls-4" d="M95.54,109.75l.17-.1c-.33,10-5.69,19.74-21.61,23.25-24.16,5.33-31.81-.39-29.58-18.08C61.56,117.89,80.42,117.78,95.54,109.75Z"/></g></g></g></svg>