<svg xmlns="http://www.w3.org/2000/svg" viewBox="0 0 106.57 96.99"><defs><style>.cls-1{isolation:isolate;}.cls-2{fill:#000d20;}.cls-3{fill:none;stroke:#000d20;stroke-linecap:round;stroke-linejoin:round;}.cls-4{fill:#ffb726;mix-blend-mode:multiply;}</style></defs><title>Butter3</title><g class="cls-1"><g id="Capa_2" data-name="Capa 2"><g id="Capa_1-2" data-name="Capa 1"><path class="cls-2" d="M65.2,54.69c3,9.79,4.22,18.13,2.63,18.63s-5.36-7-8.4-16.83S55.2,38.36,56.79,37.86,62.15,44.9,65.2,54.69Z"/><path class="cls-2" d="M59.68,37a3,3,0,1,1-3.78-2A3,3,0,0,1,59.68,37Z"/><path class="cls-3" d="M40.65,23.71S48.47,22,55.56,36.64"/><path class="cls-2" d="M42,23.29a1.41,1.41,0,1,1-1.77-.93A1.4,1.4,0,0,1,42,23.29Z"/><path class="cls-3" d="M62.2,17s-7.4,3-5,19.1"/><path class="cls-2" d="M60.85,17.43a1.42,1.42,0,1,0,.93-1.78A1.42,1.42,0,0,0,60.85,17.43Z"/><path class="cls-4" d="M58.47,42.66C52.94,38.59,22.82,19.73,8.83,23.54-6.55,27.72,1.72,33.73,7.12,43.09s4.2,18.51,22.35,13A241.85,241.85,0,0,1,60.14,48.8Z"/><path class="cls-4" d="M59.2,45.32c-3.54.38-20.43,2.54-27.54,10.12C23.7,63.93,17,80,35,90.77s25.09,7.41,27.49-8.91c1.69-11.54,2.19-14.92,2.33-15.9Z"/><path class="cls-4" d="M20.46,24C16.07,23,12,22.67,8.83,23.54-6.55,27.72,1.72,33.73,7.12,43.09c4.46,7.73,4.42,15.32,14.53,14.61C17.18,46.61,14.36,34.34,20.46,24Z"/><path class="cls-4" d="M24.56,67.76a1.2,1.2,0,0,1-.11-.12c-2.28,7.7-.67,16.43,10.54,23.13,17,10.15,24.25,7.74,27-6.26C48.3,82.53,34,77.68,24.56,67.76Z"/><path class="cls-4" d="M58.47,42.66C61.18,36.35,77.59,4.83,91.58,1,107-3.17,102.87,6.21,103,17s5.76,18.08-12.68,22.53A240.06,240.06,0,0,0,60.14,48.8Z"/><path class="cls-4" d="M59.2,45.32c3.24-1.47,18.89-8.16,28.86-5.23,11.17,3.28,25.12,13.73,15,32.14S85.22,91.34,74.88,78.48C67.58,69.39,65.44,66.73,64.81,66Z"/><path class="cls-4" d="M100.43,47.11a.9.9,0,0,0,0-.16c5.87,5.48,8.91,13.83,2.64,25.28-9.52,17.37-17,19-26.48,8.3C87.44,71.88,97.31,60.45,100.43,47.11Z"/></g></g></g></svg>