<svg xmlns="http://www.w3.org/2000/svg" viewBox="0 0 84.53 43.18"><defs><style>.cls-1{fill:#2b2b2b;}</style></defs><title>Butter5</title><g id="Capa_2" data-name="Capa 2"><g id="Capa_1-2" data-name="Capa 1"><path class="cls-1" d="M3.15,5C4.47,6.1,5.67,7.22,7,8.35s2.72,2.24,3.86,3.42c.51.51,1.12,1,1.64,1.5s1,1,1.49,1.52a53.45,53.45,0,0,0,4.71,4.5c.27.24.54.5.79.75s.43.52.69.77a11.41,11.41,0,0,0,2,1.41c.76.46,1.46,1,2.15,1.34.53.27,1.72.41,2.23.69-1.09,2.13.39,4.33,1.3,6.06a16.72,16.72,0,0,0,1.91,2.49,31.46,31.46,0,0,0,4.93,4.64,20.1,20.1,0,0,0,3.13,2.12,31.5,31.5,0,0,0,4.28,1.78c.71.25,1.4.6,2.11.9a7.3,7.3,0,0,0,2.86.94,3.44,3.44,0,0,0,1.53-.33c.44-.4.1-1.37,0-1.76a30,30,0,0,0-1.69-4.83c-.25-.52-.59-1-.84-1.54a13.49,13.49,0,0,0-.85-1.53,9.47,9.47,0,0,1-1-1.5,10.63,10.63,0,0,0-.86-1.52c.08-.16.38-.1.41-.3a2.39,2.39,0,0,1,.7.73,14.45,14.45,0,0,0,4.72,3.46c1.58.77,3.07,1.68,4.65,2.51a25.94,25.94,0,0,0,2.48,1.2c.94.39,2,.73,3,1.06s2.05.64,3,1.05a4.88,4.88,0,0,0,.76.37,14.55,14.55,0,0,0,1.5.26,15.29,15.29,0,0,0,6.34-.29,45.46,45.46,0,0,0,5-1.59A17.76,17.76,0,0,0,82.15,35a13.92,13.92,0,0,0,1.62-1.66,4,4,0,0,0,.74-2.48,7.76,7.76,0,0,0-.05-1.66,6.66,6.66,0,0,0-.31-.85,5.43,5.43,0,0,0-.68-1.66,7.56,7.56,0,0,0-1.4-1.22,12.13,12.13,0,0,0-3.17-1.79,18.25,18.25,0,0,0-3.83-1c-1.41-.2-2.87-.49-4.34-.78a7.93,7.93,0,0,1,1.85-.48c.34-.08.66-.15,1-.21s.68-.09,1-.15a4.53,4.53,0,0,0,3.11-2.33,5.1,5.1,0,0,0,.18-2.08c0-.65-.2-1.31-.29-1.93s-.15-1.29-.29-1.93a10.51,10.51,0,0,1-.35-1.91c-.05-1.36.58-2.85.69-4.25s.15-2.72-1-3.73a9.87,9.87,0,0,0-1.8-1,12.63,12.63,0,0,0-3.23-.36,15.15,15.15,0,0,0-2.77.39,25.28,25.28,0,0,0-5.86,1.81l-3.14,1.4a33.22,33.22,0,0,0-3.06,1.45c-.94.53-1.87,1.1-2.78,1.73-1.74,1.2-3.7,2.38-5.35,3.68-1.24,1-2.33,2.07-3.59,2.94a5.52,5.52,0,0,0-1.25,1c-.37.48-.46,1-.76,1.48s-.63.82-.92,1.22c-.94,1.31-2.08,2.61-3,4.05a3.44,3.44,0,0,1-.94-.92,23.21,23.21,0,0,1-1.45-2l-.34-.52c-.12-.16-.31-.31-.42-.48a12.86,12.86,0,0,1-.62-1.23c-.65-1.2-1.06-2.45-1.74-3.68-.46-.8-.8-1.64-1.21-2.46A5.88,5.88,0,0,1,32,10.09a1.44,1.44,0,0,1,.14-1.4c.44,0,.58.46,1.32.41A.67.67,0,0,0,34,8.73c.14-.38-.58-.7-1.36-.6-1.25.16-1.25,1.34-1.09,2A6,6,0,0,0,32,11.33c1.16,2.35,2.4,5,3.46,7.23a5.12,5.12,0,0,0-1.52.12c-2.38-2.7-4.81-5.95-8.06-8.59a5,5,0,0,0-1.8-1c-.71-.14-1.49.08-1.61.47s1.27,1,1.61.41c.18-.29-.38-.5-.61-.64a2.77,2.77,0,0,1,2,.84,13.26,13.26,0,0,1,1.33,1.19,32.64,32.64,0,0,1,2.42,2.44c.68.84,1.53,1.67,2.29,2.5S33,18,33.67,18.81c-.23.41,0,.69.08,1C32.44,19,31.29,18.07,30,17.2c-.65-.43-1.3-.87-1.88-1.33a21.65,21.65,0,0,0-1.71-1.35c-1.32-.84-2.6-1.72-3.88-2.59-.64-.44-1.39-.84-2-1.29s-1.19-.9-1.84-1.33c-2.56-1.69-5.84-3.21-8.73-4.9C7.87,3.2,5.68,2,3.15.79,2.73.59,1.09-.29.39.1.07.28.25.5,0,.81A13.68,13.68,0,0,0,1.43,2.94,9,9,0,0,0,3.15,5ZM36.3,19.73a2.26,2.26,0,0,1-.14-.26,1.91,1.91,0,0,0,.15.28A0,0,0,0,0,36.3,19.73ZM35.41,21c-.3-.34-.83-.62-1.12-.95h0c.3.33.84.61,1.13,1Z"/></g></g></svg>