<svg xmlns="http://www.w3.org/2000/svg" viewBox="0 0 99.52 79.3"><defs><style>.cls-1{fill:none;stroke:#f0cd30;stroke-miterlimit:10;stroke-width:4.52px;}.cls-2{fill:#222220;}.cls-3{fill:#f0cd30;}.cls-4{fill:#020202;}</style></defs><title>Logo</title><g id="Capa_2" data-name="Capa 2"><g id="Capa_1-2" data-name="Capa 1"><polyline class="cls-1" points="53.7 41.04 48.51 52.11 42.86 41.04"/><ellipse class="cls-1" cx="31" cy="28.16" rx="17.4" ry="16.72"/><ellipse class="cls-1" cx="63.75" cy="30.76" rx="14.35" ry="14.12"/><circle class="cls-2" cx="35.29" cy="31.89" r="6.66"/><circle class="cls-2" cx="59.01" cy="33.02" r="4.63"/><path class="cls-3" d="M28.63,4.1c6.64-.33,15.39,2.49,19.5,8.06,1.53,2.08,5.06.06,3.51-2.06C46.65,3.34,36.88-.37,28.63,0,26,.16,26,4.22,28.63,4.1Z"/><path class="cls-3" d="M51.37,13.25c4.1-2.86,10.16-4.48,15.09-4.9,2.59-.22,2.61-4.29,0-4.07-5.68.48-12.41,2.15-17.14,5.46-2.14,1.48-.11,5,2,3.51Z"/><path d="M2.93,75.58a55.41,55.41,0,0,0,1.16-9.86L1.53,66.78c.27.3.13,1,.2,1.46a10.6,10.6,0,0,0,.7,2.33A25.44,25.44,0,0,0,4.76,74.7a1.52,1.52,0,0,0,2.75-.36,17.93,17.93,0,0,1,3.36-6.94L8.31,66.34c.43,3.82.23,8.54,2.3,11.91,1,1.64,3.61.13,2.59-1.52-1.75-2.85-1.52-7.14-1.89-10.39-.12-1.12-1.65-2.19-2.56-1.06a21.29,21.29,0,0,0-4.14,8.27l2.74-.36a16.28,16.28,0,0,1-2.58-5c-.31-1.34-.12-2.44-1.12-3.51a1.52,1.52,0,0,0-2.56,1.06,50.22,50.22,0,0,1-1,9.06c-.4,1.88,2.49,2.69,2.89.8Z"/><path d="M14.75,70.22A3.09,3.09,0,0,0,14,72.75c0,1.15,0,2.3,0,3.46a1.2,1.2,0,0,0,2.4,0c0-.77,0-1.54,0-2.31,0-.28-.19-1.79,0-2,1.17-1-.53-2.71-1.69-1.7Z"/><path d="M15.73,68.4a1.2,1.2,0,0,0,0-2.4,1.2,1.2,0,0,0,0,2.4Z"/><path d="M17.78,70.52c.66.83.36,2.61.44,3.58a22.6,22.6,0,0,0,.56,3.47c.33,1.42,2.2.93,2.36-.32.24-2,.1-5.76,2.66-6.24,1.52-.28.88-2.6-.64-2.31-3.93.74-4,5.41-4.42,8.55l2.35-.32a25.14,25.14,0,0,1-.55-5,4.94,4.94,0,0,0-1.06-3.13c-1-1.21-2.66.5-1.7,1.69Z"/><path d="M27.1,71c.58,0,2.15-.3,2.63,0s.25,1,.32,1.67a16.37,16.37,0,0,1-.37,5.07l2-.53a3.86,3.86,0,0,0-2.46-1.15c-.74-.1-1.93.06-2-1.09s1.45-1.25,2.18-1.06A1.2,1.2,0,0,0,30,71.65c-2.33-.6-5,.53-5.2,3.18a3.26,3.26,0,0,0,1.28,2.86c1.12.84,3,.31,3.9,1.27a1.21,1.21,0,0,0,2-.53c.21-1.21.51-2.44.63-3.67a17.18,17.18,0,0,0-.22-3.65c-.36-2.8-3.09-2.53-5.31-2.47a1.2,1.2,0,0,0,0,2.4Z"/><path d="M39.2,64.29c-2.4.29-5.18.93-5.89,3.62-.62,2.33-.25,5.4,2,6.7,1.85,1.09,4.49,1.31,5.46-1a7.65,7.65,0,0,0-1.14-7.29c-.91-1.22-3,0-2.08,1.22a5.85,5.85,0,0,1,1.27,3.15,3.17,3.17,0,0,1-.16,1.7c-.57.81-1.48.51-2.14.1-1.09-.68-1.15-2.41-.92-3.58.35-1.83,2-2.08,3.62-2.27s1.53-2.58,0-2.4Z"/><path d="M37.58,72.85a23.53,23.53,0,0,1,1,3.7c.18.94.32,1.87,1.26,2.35,1.37.7,2.59-1.37,1.21-2.07a8.88,8.88,0,0,1-.4-2.11,24.24,24.24,0,0,0-.77-2.51c-.52-1.44-2.84-.82-2.31.64Z"/><path d="M42.08,69.34c.2,2.37.59,9.28,4.46,8.35s2.78-7,2.17-9.58c-.34-1.5-2.66-.86-2.31.64A14.94,14.94,0,0,1,46.82,72c0,.49.14,2.64-.4,3-1,.59-1.24-1.57-1.37-2.1a22.38,22.38,0,0,1-.57-3.53c-.14-1.53-2.54-1.55-2.4,0Z"/><path d="M53.38,75.83c1.85-1,4.62-2.64,3.48-5.22C56,68.68,53,68,51.24,69.13c-3.75,2.4.85,11.71,5.1,8.86,1.28-.85.08-2.93-1.21-2.07-1.52,1-3.42-3.49-2.62-4.57.41-.56,2.12-.44,2.18.49s-2,1.61-2.52,1.91c-1.36.75-.15,2.83,1.21,2.08Z"/><path d="M58.21,65.58c-.22,3.58-1.49,7.93-.59,11.48a2,2,0,0,0,1.86,1.67c1.9.17,4.05-.63,6-.69a1.2,1.2,0,0,0,0-2.4,33.83,33.83,0,0,0-3.76.31c-.41.07-1.41.37-1.81-.06s0-1.78,0-2.15c.09-2.73.55-5.43.72-8.16.09-1.54-2.31-1.54-2.4,0Z"/><path d="M67.64,70.5a13.73,13.73,0,0,0-.1,6.15c.32,1.51,2.63.87,2.32-.64a10.87,10.87,0,0,1,.1-4.88,1.2,1.2,0,0,0-2.32-.63Z"/><path d="M69.35,68.4a1.2,1.2,0,0,0,0-2.4,1.2,1.2,0,0,0,0,2.4Z"/><path d="M71.14,70.11c-.31,1.92.49,4.11.87,6a1.2,1.2,0,0,0,2.31,0A11.73,11.73,0,0,1,75,74a7.78,7.78,0,0,0,.57-1.11l.18-.27c-.33-.49-.47-.54-.43-.15-.27.46,0,1.79.08,2.29a18.35,18.35,0,0,0,.43,2.35,1.2,1.2,0,0,0,2.31-.64,24.29,24.29,0,0,1-.4-4.5,1.93,1.93,0,0,0-1.87-1.86C73.42,70,72.4,73.66,72,75.47h2.31l-.46-2.29a7.59,7.59,0,0,1-.4-2.43c.24-1.51-2.07-2.16-2.32-.64Z"/><path d="M84,69c-1.63.87-4.3,1.73-4.74,3.8-.39,1.89,1.19,4,2.85,4.7,1.32.56,2.9.34,3.37-1.12a27.24,27.24,0,0,0,.65-4.25l.72-4.73-2.35-.32c.42,3.71-1.51,7.27-.23,10.94.51,1.45,2.83.83,2.32-.64-1.18-3.37.7-6.84.31-10.3-.14-1.21-2.14-1.78-2.36-.32l-1.15,7.56a9,9,0,0,1-.22,1.42q-.51-.58-1-1.2A.72.72,0,0,1,82,73.46c.25-1.21,2.13-1.79,3.18-2.36,1.37-.73.15-2.8-1.21-2.07Z"/><path d="M90.74,67.78c-4,.77-4.18,6.68-1.15,8.78a2.6,2.6,0,0,0,4-1.25,6.93,6.93,0,0,0-.78-6,1.26,1.26,0,0,0-2.17,1.27A5.34,5.34,0,0,1,91.38,73c0,.75-.07,1.92-.84.87-.88-1.21-.83-3.35.87-3.68s.92-2.73-.67-2.42Z"/><path d="M96.6,78.9a1.2,1.2,0,0,0,0-2.4,1.2,1.2,0,0,0,0,2.4Z"/><path d="M97.67,73.83a14.31,14.31,0,0,1,1.7-7.78c.73-1.36-1.34-2.58-2.07-1.21a16.76,16.76,0,0,0-2,9c.08,1.53,2.48,1.54,2.4,0Z"/><path d="M29.07,67.2a3,3,0,0,1,.45-1.29c.08-.12.71-1.12.82-1s-.54.9-.66,1a4,4,0,0,1-1.08.79l.55.42c.13-.4.48-.58.69-.93a3.26,3.26,0,0,1,.73-1c.37-.31-.16-.84-.53-.53a4.84,4.84,0,0,0-.88,1.18A4,4,0,0,0,28.43,67a.38.38,0,0,0,.55.43,4.89,4.89,0,0,0,1.75-1.6c.3-.44.83-1.31.13-1.69s-1.28.34-1.6.79a4.53,4.53,0,0,0-.94,2.26c0,.48.71.48.75,0Z"/><path class="cls-4" d="M55,64.43c-.65.18-.91.7-1.25,1.24A3.58,3.58,0,0,0,53,67.56a.38.38,0,0,0,.64.26c.39-.45.77-.9,1.13-1.38a4.87,4.87,0,0,0,1-1.6.38.38,0,0,0-.17-.42c-.46-.31-.94,0-1.22.42s.21.69.51.52l.37-.21C55.1,65,55,65,55,65.18a4,4,0,0,0-.38.59,4.91,4.91,0,0,1-1.14,1.09.38.38,0,0,0,.19.7.59.59,0,0,0,.43-.17c.34-.27-.1-.79-.46-.58a.57.57,0,0,0-.32.34c-.15.31.17.72.51.51a1.39,1.39,0,0,0,.37-.31l-.59-.46a.46.46,0,0,1-.31.28c-.38.17-.11.84.29.68A3.47,3.47,0,0,0,55,66.69,3.68,3.68,0,0,0,56,65c.08-.47-.64-.67-.72-.2a3,3,0,0,1-.8,1.33,2.82,2.82,0,0,1-1.06,1l.29.69a1.29,1.29,0,0,0,.58-.55c.2-.36-.3-.79-.59-.45a.59.59,0,0,1-.22.19l.52.51,0-.07-.45-.59.1,0,.19.7a5.54,5.54,0,0,0,1.91-2.19c.13-.31.2-.66-.14-.87s-.82.07-1.15.26l.51.51.19-.15L55,64.65a4.55,4.55,0,0,1-.9,1.42c-.32.42-.66.82-1,1.22l.64.27a2.56,2.56,0,0,1,.58-1.35c.25-.37.45-.93.91-1.06a.37.37,0,0,0-.2-.72Z"/></g></g></svg>