<svg xmlns="http://www.w3.org/2000/svg" viewBox="0 0 68.64 99.74"><defs><style>.cls-1{isolation:isolate;}.cls-2{fill:#000d20;}.cls-3{fill:none;stroke:#000d20;stroke-linecap:round;stroke-linejoin:round;}.cls-4{fill:#ffb726;mix-blend-mode:multiply;}</style></defs><title>Butter2</title><g class="cls-1"><g id="Capa_2" data-name="Capa 2"><g id="Capa_1-2" data-name="Capa 1"><path class="cls-2" d="M48.88,73.51c-3.69,6.67-7.56,11.6-8.65,11S41.26,78,45,71.33s7.56-11.6,8.65-11S52.57,66.83,48.88,73.51Z"/><path class="cls-2" d="M55.57,61.42a2.25,2.25,0,1,1-.88-3.05A2.25,2.25,0,0,1,55.57,61.42Z"/><path class="cls-3" d="M67.58,52.5s-5.44-2.4-12.8,7.18"/><path class="cls-2" d="M66.66,52a1.06,1.06,0,1,0,1.43-.41A1.06,1.06,0,0,0,66.66,52Z"/><path class="cls-3" d="M63.15,49.61s-5.93-.53-9.81,10.91"/><path class="cls-2" d="M62.11,49.42a1.06,1.06,0,1,0,1.23-.85A1.05,1.05,0,0,0,62.11,49.42Z"/><path class="cls-4" d="M48,68.48s-.9-25.07-5.9-40.12S30.92-11.36,23.86,5.88,48,68.48,48,68.48Z"/><path class="cls-4" d="M48,68.48S39.72,32,36.33,26.37,25.84-9.23,15.21,10,2.9,47,3.75,49s6.45,5.65,12.45,8.62C21.06,60.06,50.21,77.92,48,68.48Z"/><path class="cls-4" d="M47.21,70.94S5.15,40,1.41,54s.44,46.31,6.7,45.76S40.3,79.86,47.21,70.94Z"/></g></g></g></svg>